<mxfile host="app.diagrams.net" modified="2023-04-13T08:46:18.124Z" agent="Mozilla/5.0 (Macintosh; Intel Mac OS X 10_15_7) AppleWebKit/537.36 (KHTML, like Gecko) Chrome/112.0.0.0 Safari/537.36" etag="fC237vLRINV2pHnb40f-" version="21.1.5" type="github">
  <diagram name="第 1 页" id="WFjRH70Nv3H8INIwhUK5">
    <mxGraphModel dx="2371" dy="1081" grid="1" gridSize="10" guides="1" tooltips="1" connect="1" arrows="1" fold="1" page="1" pageScale="1" pageWidth="4681" pageHeight="3300" math="0" shadow="0">
      <root>
        <mxCell id="0" />
        <mxCell id="1" parent="0" />
        <mxCell id="lDcJm_uBUvI5MJWjg3wT-75" value="" style="rounded=1;whiteSpace=wrap;html=1;absoluteArcSize=1;arcSize=14;strokeWidth=2;" vertex="1" parent="1">
          <mxGeometry x="820" y="952.5" width="330" height="342.5" as="geometry" />
        </mxCell>
        <mxCell id="lDcJm_uBUvI5MJWjg3wT-41" value="" style="rounded=1;whiteSpace=wrap;html=1;absoluteArcSize=1;arcSize=14;strokeWidth=2;" vertex="1" parent="1">
          <mxGeometry x="90" y="952.5" width="330" height="342.5" as="geometry" />
        </mxCell>
        <mxCell id="lDcJm_uBUvI5MJWjg3wT-4" style="edgeStyle=orthogonalEdgeStyle;rounded=0;orthogonalLoop=1;jettySize=auto;html=1;" edge="1" parent="1" source="lDcJm_uBUvI5MJWjg3wT-1">
          <mxGeometry relative="1" as="geometry">
            <mxPoint x="715" y="220" as="targetPoint" />
          </mxGeometry>
        </mxCell>
        <mxCell id="lDcJm_uBUvI5MJWjg3wT-1" value="webService" style="rounded=1;whiteSpace=wrap;html=1;absoluteArcSize=1;arcSize=14;strokeWidth=2;" vertex="1" parent="1">
          <mxGeometry x="610" y="60" width="210" height="100" as="geometry" />
        </mxCell>
        <mxCell id="lDcJm_uBUvI5MJWjg3wT-47" style="edgeStyle=orthogonalEdgeStyle;rounded=0;orthogonalLoop=1;jettySize=auto;html=1;entryX=0.5;entryY=0;entryDx=0;entryDy=0;" edge="1" parent="1" source="lDcJm_uBUvI5MJWjg3wT-3" target="lDcJm_uBUvI5MJWjg3wT-13">
          <mxGeometry relative="1" as="geometry" />
        </mxCell>
        <mxCell id="lDcJm_uBUvI5MJWjg3wT-3" value="注册module" style="rounded=1;whiteSpace=wrap;html=1;absoluteArcSize=1;arcSize=14;strokeWidth=2;" vertex="1" parent="1">
          <mxGeometry x="640" y="220" width="150" height="70" as="geometry" />
        </mxCell>
        <mxCell id="lDcJm_uBUvI5MJWjg3wT-65" style="edgeStyle=orthogonalEdgeStyle;rounded=0;orthogonalLoop=1;jettySize=auto;html=1;" edge="1" parent="1" source="lDcJm_uBUvI5MJWjg3wT-5">
          <mxGeometry relative="1" as="geometry">
            <mxPoint x="247.5" y="784.9999999999998" as="targetPoint" />
          </mxGeometry>
        </mxCell>
        <mxCell id="lDcJm_uBUvI5MJWjg3wT-5" value="AssetBook" style="rounded=1;whiteSpace=wrap;html=1;absoluteArcSize=1;arcSize=14;strokeWidth=2;" vertex="1" parent="1">
          <mxGeometry x="172.5" y="640" width="150" height="70" as="geometry" />
        </mxCell>
        <mxCell id="lDcJm_uBUvI5MJWjg3wT-81" style="edgeStyle=orthogonalEdgeStyle;rounded=0;orthogonalLoop=1;jettySize=auto;html=1;" edge="1" parent="1" source="lDcJm_uBUvI5MJWjg3wT-6">
          <mxGeometry relative="1" as="geometry">
            <mxPoint x="1385" y="794.9999999999998" as="targetPoint" />
          </mxGeometry>
        </mxCell>
        <mxCell id="lDcJm_uBUvI5MJWjg3wT-6" value="VOIP- SIP" style="rounded=1;whiteSpace=wrap;html=1;absoluteArcSize=1;arcSize=14;strokeWidth=2;" vertex="1" parent="1">
          <mxGeometry x="1310" y="645" width="150" height="70" as="geometry" />
        </mxCell>
        <mxCell id="lDcJm_uBUvI5MJWjg3wT-79" style="edgeStyle=orthogonalEdgeStyle;rounded=0;orthogonalLoop=1;jettySize=auto;html=1;entryX=0.5;entryY=0;entryDx=0;entryDy=0;" edge="1" parent="1" source="lDcJm_uBUvI5MJWjg3wT-7" target="lDcJm_uBUvI5MJWjg3wT-29">
          <mxGeometry relative="1" as="geometry" />
        </mxCell>
        <mxCell id="lDcJm_uBUvI5MJWjg3wT-7" value="FilePreview" style="rounded=1;whiteSpace=wrap;html=1;absoluteArcSize=1;arcSize=14;strokeWidth=2;" vertex="1" parent="1">
          <mxGeometry x="900" y="640" width="150" height="70" as="geometry" />
        </mxCell>
        <mxCell id="lDcJm_uBUvI5MJWjg3wT-70" style="edgeStyle=orthogonalEdgeStyle;rounded=0;orthogonalLoop=1;jettySize=auto;html=1;entryX=0;entryY=0.5;entryDx=0;entryDy=0;" edge="1" parent="1" source="lDcJm_uBUvI5MJWjg3wT-13" target="lDcJm_uBUvI5MJWjg3wT-25">
          <mxGeometry relative="1" as="geometry" />
        </mxCell>
        <mxCell id="lDcJm_uBUvI5MJWjg3wT-71" style="edgeStyle=orthogonalEdgeStyle;rounded=0;orthogonalLoop=1;jettySize=auto;html=1;entryX=0;entryY=0.5;entryDx=0;entryDy=0;" edge="1" parent="1" source="lDcJm_uBUvI5MJWjg3wT-13" target="lDcJm_uBUvI5MJWjg3wT-26">
          <mxGeometry relative="1" as="geometry">
            <mxPoint x="990" y="320" as="targetPoint" />
          </mxGeometry>
        </mxCell>
        <mxCell id="lDcJm_uBUvI5MJWjg3wT-72" style="edgeStyle=orthogonalEdgeStyle;rounded=0;orthogonalLoop=1;jettySize=auto;html=1;entryX=0;entryY=0.5;entryDx=0;entryDy=0;" edge="1" parent="1" source="lDcJm_uBUvI5MJWjg3wT-13" target="lDcJm_uBUvI5MJWjg3wT-27">
          <mxGeometry relative="1" as="geometry" />
        </mxCell>
        <mxCell id="lDcJm_uBUvI5MJWjg3wT-74" style="edgeStyle=orthogonalEdgeStyle;rounded=0;orthogonalLoop=1;jettySize=auto;html=1;" edge="1" parent="1" source="lDcJm_uBUvI5MJWjg3wT-13" target="lDcJm_uBUvI5MJWjg3wT-58">
          <mxGeometry relative="1" as="geometry">
            <Array as="points">
              <mxPoint x="715" y="550" />
              <mxPoint x="595" y="550" />
            </Array>
          </mxGeometry>
        </mxCell>
        <mxCell id="lDcJm_uBUvI5MJWjg3wT-76" style="edgeStyle=orthogonalEdgeStyle;rounded=0;orthogonalLoop=1;jettySize=auto;html=1;entryX=0.5;entryY=0;entryDx=0;entryDy=0;" edge="1" parent="1" source="lDcJm_uBUvI5MJWjg3wT-13" target="lDcJm_uBUvI5MJWjg3wT-7">
          <mxGeometry relative="1" as="geometry">
            <Array as="points">
              <mxPoint x="715" y="550" />
              <mxPoint x="975" y="550" />
            </Array>
          </mxGeometry>
        </mxCell>
        <mxCell id="lDcJm_uBUvI5MJWjg3wT-77" style="edgeStyle=orthogonalEdgeStyle;rounded=0;orthogonalLoop=1;jettySize=auto;html=1;" edge="1" parent="1" source="lDcJm_uBUvI5MJWjg3wT-13" target="lDcJm_uBUvI5MJWjg3wT-5">
          <mxGeometry relative="1" as="geometry">
            <Array as="points">
              <mxPoint x="715" y="550" />
              <mxPoint x="248" y="550" />
            </Array>
          </mxGeometry>
        </mxCell>
        <mxCell id="lDcJm_uBUvI5MJWjg3wT-83" style="edgeStyle=orthogonalEdgeStyle;rounded=0;orthogonalLoop=1;jettySize=auto;html=1;entryX=0.5;entryY=0;entryDx=0;entryDy=0;" edge="1" parent="1" source="lDcJm_uBUvI5MJWjg3wT-13" target="lDcJm_uBUvI5MJWjg3wT-6">
          <mxGeometry relative="1" as="geometry">
            <Array as="points">
              <mxPoint x="715" y="550" />
              <mxPoint x="1385" y="550" />
            </Array>
          </mxGeometry>
        </mxCell>
        <mxCell id="lDcJm_uBUvI5MJWjg3wT-13" value="初始化依赖" style="rounded=1;whiteSpace=wrap;html=1;absoluteArcSize=1;arcSize=14;strokeWidth=2;" vertex="1" parent="1">
          <mxGeometry x="635" y="360" width="160" height="60" as="geometry" />
        </mxCell>
        <mxCell id="lDcJm_uBUvI5MJWjg3wT-61" style="edgeStyle=orthogonalEdgeStyle;rounded=0;orthogonalLoop=1;jettySize=auto;html=1;" edge="1" parent="1" source="lDcJm_uBUvI5MJWjg3wT-15">
          <mxGeometry relative="1" as="geometry">
            <mxPoint x="510" y="824.9999999999998" as="targetPoint" />
          </mxGeometry>
        </mxCell>
        <mxCell id="lDcJm_uBUvI5MJWjg3wT-67" style="edgeStyle=orthogonalEdgeStyle;rounded=0;orthogonalLoop=1;jettySize=auto;html=1;" edge="1" parent="1" source="lDcJm_uBUvI5MJWjg3wT-15">
          <mxGeometry relative="1" as="geometry">
            <mxPoint x="250" y="944.9999999999998" as="targetPoint" />
          </mxGeometry>
        </mxCell>
        <mxCell id="lDcJm_uBUvI5MJWjg3wT-15" value="可调用的内置方法" style="rounded=1;whiteSpace=wrap;html=1;absoluteArcSize=1;arcSize=14;strokeWidth=2;" vertex="1" parent="1">
          <mxGeometry x="175" y="795" width="150" height="60" as="geometry" />
        </mxCell>
        <mxCell id="lDcJm_uBUvI5MJWjg3wT-17" value="add" style="rounded=1;whiteSpace=wrap;html=1;absoluteArcSize=1;arcSize=14;strokeWidth=2;" vertex="1" parent="1">
          <mxGeometry x="140" y="967.5" width="100" height="40" as="geometry" />
        </mxCell>
        <mxCell id="lDcJm_uBUvI5MJWjg3wT-18" value="delete" style="rounded=1;whiteSpace=wrap;html=1;absoluteArcSize=1;arcSize=14;strokeWidth=2;" vertex="1" parent="1">
          <mxGeometry x="260" y="967.5" width="110" height="40" as="geometry" />
        </mxCell>
        <mxCell id="lDcJm_uBUvI5MJWjg3wT-19" value="query All" style="rounded=1;whiteSpace=wrap;html=1;absoluteArcSize=1;arcSize=14;strokeWidth=2;" vertex="1" parent="1">
          <mxGeometry x="142.5" y="1167.5" width="100" height="40" as="geometry" />
        </mxCell>
        <mxCell id="lDcJm_uBUvI5MJWjg3wT-20" value="csv import" style="rounded=1;whiteSpace=wrap;html=1;absoluteArcSize=1;arcSize=14;strokeWidth=2;" vertex="1" parent="1">
          <mxGeometry x="140" y="1037.5" width="100" height="40" as="geometry" />
        </mxCell>
        <mxCell id="lDcJm_uBUvI5MJWjg3wT-21" value="update" style="rounded=1;whiteSpace=wrap;html=1;absoluteArcSize=1;arcSize=14;strokeWidth=2;" vertex="1" parent="1">
          <mxGeometry x="140" y="1107.5" width="100" height="30" as="geometry" />
        </mxCell>
        <mxCell id="lDcJm_uBUvI5MJWjg3wT-22" value="query&amp;nbsp;cache" style="rounded=1;whiteSpace=wrap;html=1;absoluteArcSize=1;arcSize=14;strokeWidth=2;" vertex="1" parent="1">
          <mxGeometry x="262.5" y="1037.5" width="100" height="40" as="geometry" />
        </mxCell>
        <mxCell id="lDcJm_uBUvI5MJWjg3wT-23" value="isExist" style="rounded=1;whiteSpace=wrap;html=1;absoluteArcSize=1;arcSize=14;strokeWidth=2;" vertex="1" parent="1">
          <mxGeometry x="262.5" y="1102.5" width="110" height="40" as="geometry" />
        </mxCell>
        <mxCell id="lDcJm_uBUvI5MJWjg3wT-25" value="数据库初始化" style="rounded=1;whiteSpace=wrap;html=1;absoluteArcSize=1;arcSize=14;strokeWidth=2;" vertex="1" parent="1">
          <mxGeometry x="1360" y="240" width="90" height="60" as="geometry" />
        </mxCell>
        <mxCell id="lDcJm_uBUvI5MJWjg3wT-26" value="文件/目录初始化" style="rounded=1;whiteSpace=wrap;html=1;absoluteArcSize=1;arcSize=14;strokeWidth=2;" vertex="1" parent="1">
          <mxGeometry x="1360" y="360" width="90" height="60" as="geometry" />
        </mxCell>
        <mxCell id="lDcJm_uBUvI5MJWjg3wT-27" value="es初始化" style="rounded=1;whiteSpace=wrap;html=1;absoluteArcSize=1;arcSize=14;strokeWidth=2;" vertex="1" parent="1">
          <mxGeometry x="1360" y="470" width="90" height="60" as="geometry" />
        </mxCell>
        <mxCell id="lDcJm_uBUvI5MJWjg3wT-56" style="edgeStyle=orthogonalEdgeStyle;rounded=0;orthogonalLoop=1;jettySize=auto;html=1;" edge="1" parent="1" source="lDcJm_uBUvI5MJWjg3wT-29">
          <mxGeometry relative="1" as="geometry">
            <mxPoint x="975" y="944.9999999999998" as="targetPoint" />
          </mxGeometry>
        </mxCell>
        <mxCell id="lDcJm_uBUvI5MJWjg3wT-29" value="可调用的内置方法" style="rounded=1;whiteSpace=wrap;html=1;absoluteArcSize=1;arcSize=14;strokeWidth=2;" vertex="1" parent="1">
          <mxGeometry x="900" y="795" width="150" height="60" as="geometry" />
        </mxCell>
        <mxCell id="lDcJm_uBUvI5MJWjg3wT-31" value="delete" style="rounded=1;whiteSpace=wrap;html=1;absoluteArcSize=1;arcSize=14;strokeWidth=2;" vertex="1" parent="1">
          <mxGeometry x="1000" y="967.5" width="110" height="40" as="geometry" />
        </mxCell>
        <mxCell id="lDcJm_uBUvI5MJWjg3wT-32" value="query All" style="rounded=1;whiteSpace=wrap;html=1;absoluteArcSize=1;arcSize=14;strokeWidth=2;" vertex="1" parent="1">
          <mxGeometry x="840" y="967.5" width="100" height="40" as="geometry" />
        </mxCell>
        <mxCell id="lDcJm_uBUvI5MJWjg3wT-33" value="download" style="rounded=1;whiteSpace=wrap;html=1;absoluteArcSize=1;arcSize=14;strokeWidth=2;" vertex="1" parent="1">
          <mxGeometry x="1000" y="1037.5" width="110" height="40" as="geometry" />
        </mxCell>
        <mxCell id="lDcJm_uBUvI5MJWjg3wT-34" value="view" style="rounded=1;whiteSpace=wrap;html=1;absoluteArcSize=1;arcSize=14;strokeWidth=2;" vertex="1" parent="1">
          <mxGeometry x="840" y="1037.5" width="100" height="40" as="geometry" />
        </mxCell>
        <mxCell id="lDcJm_uBUvI5MJWjg3wT-66" style="edgeStyle=orthogonalEdgeStyle;rounded=0;orthogonalLoop=1;jettySize=auto;html=1;" edge="1" parent="1" source="lDcJm_uBUvI5MJWjg3wT-58">
          <mxGeometry relative="1" as="geometry">
            <mxPoint x="595" y="784.9999999999998" as="targetPoint" />
          </mxGeometry>
        </mxCell>
        <mxCell id="lDcJm_uBUvI5MJWjg3wT-58" value="Autodiscover" style="rounded=1;whiteSpace=wrap;html=1;absoluteArcSize=1;arcSize=14;strokeWidth=2;" vertex="1" parent="1">
          <mxGeometry x="520" y="640" width="150" height="70" as="geometry" />
        </mxCell>
        <mxCell id="lDcJm_uBUvI5MJWjg3wT-69" style="edgeStyle=orthogonalEdgeStyle;rounded=0;orthogonalLoop=1;jettySize=auto;html=1;" edge="1" parent="1" source="lDcJm_uBUvI5MJWjg3wT-59">
          <mxGeometry relative="1" as="geometry">
            <mxPoint x="595" y="944.9999999999998" as="targetPoint" />
          </mxGeometry>
        </mxCell>
        <mxCell id="lDcJm_uBUvI5MJWjg3wT-59" value="可调用的内置方法" style="rounded=1;whiteSpace=wrap;html=1;absoluteArcSize=1;arcSize=14;strokeWidth=2;" vertex="1" parent="1">
          <mxGeometry x="520" y="795" width="150" height="60" as="geometry" />
        </mxCell>
        <mxCell id="lDcJm_uBUvI5MJWjg3wT-60" value="" style="rounded=1;whiteSpace=wrap;html=1;absoluteArcSize=1;arcSize=14;strokeWidth=2;" vertex="1" parent="1">
          <mxGeometry x="450" y="951.25" width="330" height="342.5" as="geometry" />
        </mxCell>
        <mxCell id="lDcJm_uBUvI5MJWjg3wT-62" value="DNS import" style="rounded=1;whiteSpace=wrap;html=1;absoluteArcSize=1;arcSize=14;strokeWidth=2;" vertex="1" parent="1">
          <mxGeometry x="480" y="967.5" width="100" height="40" as="geometry" />
        </mxCell>
        <mxCell id="lDcJm_uBUvI5MJWjg3wT-63" value="DHCP import" style="rounded=1;whiteSpace=wrap;html=1;absoluteArcSize=1;arcSize=14;strokeWidth=2;" vertex="1" parent="1">
          <mxGeometry x="610" y="967.5" width="100" height="40" as="geometry" />
        </mxCell>
        <mxCell id="lDcJm_uBUvI5MJWjg3wT-82" style="edgeStyle=orthogonalEdgeStyle;rounded=0;orthogonalLoop=1;jettySize=auto;html=1;" edge="1" parent="1" source="lDcJm_uBUvI5MJWjg3wT-78">
          <mxGeometry relative="1" as="geometry">
            <mxPoint x="1385" y="944.9999999999998" as="targetPoint" />
          </mxGeometry>
        </mxCell>
        <mxCell id="lDcJm_uBUvI5MJWjg3wT-78" value="可调用的内置方法" style="rounded=1;whiteSpace=wrap;html=1;absoluteArcSize=1;arcSize=14;strokeWidth=2;" vertex="1" parent="1">
          <mxGeometry x="1310" y="805" width="150" height="60" as="geometry" />
        </mxCell>
        <mxCell id="lDcJm_uBUvI5MJWjg3wT-80" value="" style="rounded=1;whiteSpace=wrap;html=1;absoluteArcSize=1;arcSize=14;strokeWidth=2;" vertex="1" parent="1">
          <mxGeometry x="1220" y="951.25" width="330" height="342.5" as="geometry" />
        </mxCell>
        <mxCell id="lDcJm_uBUvI5MJWjg3wT-84" value="query RTP" style="rounded=1;whiteSpace=wrap;html=1;absoluteArcSize=1;arcSize=14;strokeWidth=2;" vertex="1" parent="1">
          <mxGeometry x="1240" y="967.5" width="100" height="40" as="geometry" />
        </mxCell>
        <mxCell id="lDcJm_uBUvI5MJWjg3wT-85" value="save RTP to wav" style="rounded=1;whiteSpace=wrap;html=1;absoluteArcSize=1;arcSize=14;strokeWidth=2;" vertex="1" parent="1">
          <mxGeometry x="1390" y="967.5" width="100" height="40" as="geometry" />
        </mxCell>
        <mxCell id="lDcJm_uBUvI5MJWjg3wT-87" value="save RTP to mpg" style="rounded=1;whiteSpace=wrap;html=1;absoluteArcSize=1;arcSize=14;strokeWidth=2;" vertex="1" parent="1">
          <mxGeometry x="1240" y="1037.5" width="100" height="40" as="geometry" />
        </mxCell>
        <mxCell id="lDcJm_uBUvI5MJWjg3wT-88" value="get voIP reports" style="rounded=1;whiteSpace=wrap;html=1;absoluteArcSize=1;arcSize=14;strokeWidth=2;" vertex="1" parent="1">
          <mxGeometry x="1390" y="1037.5" width="100" height="40" as="geometry" />
        </mxCell>
        <mxCell id="lDcJm_uBUvI5MJWjg3wT-89" value="SIP table" style="rounded=1;whiteSpace=wrap;html=1;absoluteArcSize=1;arcSize=14;strokeWidth=2;" vertex="1" parent="1">
          <mxGeometry x="1240" y="1103.75" width="100" height="40" as="geometry" />
        </mxCell>
        <mxCell id="lDcJm_uBUvI5MJWjg3wT-90" value="SIP MOS Distribution" style="rounded=1;whiteSpace=wrap;html=1;absoluteArcSize=1;arcSize=14;strokeWidth=2;" vertex="1" parent="1">
          <mxGeometry x="1391" y="1102.5" width="100" height="40" as="geometry" />
        </mxCell>
        <mxCell id="lDcJm_uBUvI5MJWjg3wT-91" value="SIP issuss" style="rounded=1;whiteSpace=wrap;html=1;absoluteArcSize=1;arcSize=14;strokeWidth=2;" vertex="1" parent="1">
          <mxGeometry x="1240" y="1167.5" width="100" height="40" as="geometry" />
        </mxCell>
      </root>
    </mxGraphModel>
  </diagram>
</mxfile>
